<?xml version="1.0" standalone="no"?>
<!DOCTYPE svg PUBLIC "-//W3C//DTD SVG 20010904//EN"
 "http://www.w3.org/TR/2001/REC-SVG-20010904/DTD/svg10.dtd">
<svg version="1.0" xmlns="http://www.w3.org/2000/svg"
 width="512.000000pt" height="512.000000pt" viewBox="0 0 512.000000 512.000000"
 preserveAspectRatio="xMidYMid meet">

<g transform="translate(0.000000,512.000000) scale(0.100000,-0.100000)"
fill="#000000" stroke="none">
<path d="M2269 5071 c-28 -28 -29 -33 -29 -126 0 -127 20 -164 88 -165 23 0
40 8 57 26 23 25 25 34 25 131 0 102 -1 105 -29 134 -18 17 -40 29 -56 29 -16
0 -38 -12 -56 -29z"/>
<path d="M1442 4855 c-36 -16 -56 -56 -47 -95 4 -14 39 -58 79 -97 85 -86 117
-94 167 -44 48 48 40 72 -48 162 -43 42 -87 80 -98 83 -11 3 -35 -1 -53 -9z"/>
<path d="M3145 4860 c-11 -4 -53 -42 -92 -83 -84 -86 -91 -111 -44 -158 50
-49 80 -41 167 42 42 41 75 83 79 98 9 42 -10 80 -50 96 -19 8 -36 15 -37 14
-2 0 -12 -4 -23 -9z"/>
<path d="M535 4220 c-87 -11 -141 -27 -220 -68 -97 -51 -199 -154 -248 -252
-68 -135 -67 -118 -67 -1071 0 -561 4 -876 11 -915 5 -32 30 -99 54 -149 69
-144 184 -248 336 -303 l74 -27 1320 -3 c1319 -2 1321 -2 1343 18 36 33 36 60
1 176 -22 72 -33 128 -32 165 2 92 55 176 139 219 92 46 109 43 708 -138 297
-89 550 -162 562 -162 39 0 73 41 102 120 l27 75 3 894 c2 868 2 897 -18 974
-52 206 -213 371 -426 434 -55 17 -170 18 -1834 19 -976 1 -1802 -2 -1835 -6z
m911 -803 c203 -94 275 -346 149 -522 -19 -28 -35 -57 -35 -66 0 -10 16 -40
35 -69 124 -184 59 -421 -143 -522 -45 -22 -58 -23 -301 -26 -251 -3 -254 -3
-277 19 l-24 22 0 572 c0 442 3 575 13 587 28 36 48 38 287 36 234 -3 235 -3
296 -31z m622 -3 l22 -25 0 -412 c0 -411 0 -412 24 -462 41 -88 114 -135 213
-135 100 0 194 67 221 159 8 26 12 165 12 444 l0 406 23 25 c34 40 77 43 115
11 l32 -27 0 -422 c0 -457 -2 -480 -56 -572 -35 -59 -115 -131 -182 -162 -51
-24 -69 -27 -167 -27 -98 0 -116 3 -167 27 -104 49 -190 148 -222 257 -14 46
-16 120 -16 474 l0 419 30 30 c26 25 36 29 63 24 18 -3 42 -17 55 -32z m1054
16 c14 -10 73 -100 132 -199 60 -99 114 -185 122 -191 7 -7 21 -9 31 -6 10 3
70 92 133 198 121 201 144 227 196 214 13 -4 33 -15 44 -26 42 -42 30 -70
-140 -355 l-160 -267 0 -268 c0 -255 -1 -268 -21 -294 -15 -19 -30 -26 -54
-26 -91 0 -95 13 -95 332 l0 263 -156 260 c-86 143 -158 274 -161 292 -5 26 0
38 25 63 35 35 69 38 104 10z"/>
<path d="M1038 3269 c-16 -9 -18 -28 -18 -172 0 -114 4 -167 12 -175 16 -16
291 -15 336 1 42 16 91 63 108 104 40 94 -21 214 -124 243 -48 13 -292 13
-314 -1z"/>
<path d="M1031 2726 c-8 -9 -11 -65 -9 -177 l3 -164 165 -2 c155 -3 167 -2
205 20 127 72 124 249 -5 315 -40 20 -58 22 -196 22 -117 0 -154 -3 -163 -14z"/>
<path d="M3318 1855 c-28 -16 -44 -54 -39 -90 5 -34 390 -1318 406 -1353 17
-37 56 -56 95 -47 14 4 81 63 150 131 l126 124 30 -32 c17 -18 124 -144 237
-280 114 -135 219 -256 234 -268 52 -41 68 -30 321 223 128 127 235 242 238
255 4 12 4 32 0 45 -3 15 -115 115 -301 272 l-296 249 126 126 c101 102 127
133 131 161 12 75 29 68 -711 290 -368 110 -681 202 -695 204 -14 3 -37 -2
-52 -10z"/>
<path d="M1468 982 c-88 -88 -95 -110 -52 -161 20 -24 34 -31 61 -31 30 0 46
10 109 71 80 78 94 110 70 157 -17 33 -34 42 -79 42 -25 0 -45 -14 -109 -78z"/>
<path d="M2265 845 c-23 -23 -25 -31 -25 -130 0 -99 2 -107 25 -130 16 -17 35
-25 60 -25 25 0 44 8 60 25 23 23 25 31 25 130 0 99 -2 107 -25 130 -16 17
-35 25 -60 25 -25 0 -44 -8 -60 -25z"/>
</g>
</svg>
