<?xml version="1.0" standalone="no"?>
<!DOCTYPE svg PUBLIC "-//W3C//DTD SVG 20010904//EN"
 "http://www.w3.org/TR/2001/REC-SVG-20010904/DTD/svg10.dtd">
<svg version="1.0" xmlns="http://www.w3.org/2000/svg"
 width="128.000000pt" height="128.000000pt" viewBox="0 0 128.000000 128.000000"
 preserveAspectRatio="xMidYMid meet">

<g transform="translate(0.000000,128.000000) scale(0.100000,-0.100000)"
fill="#000000" stroke="none">
<path d="M495 1182 c-196 -59 -349 -216 -400 -412 -20 -78 -16 -236 9 -315 35
-114 142 -248 248 -313 118 -71 275 -99 410 -73 216 42 407 233 449 449 26
135 -2 292 -73 410 -65 106 -198 212 -313 248 -77 25 -256 28 -330 6z m-5
-262 c53 -53 -15 -144 -82 -109 -31 16 -38 28 -38 66 0 57 78 85 120 43z m400
-178 c23 -11 43 -33 58 -62 20 -39 22 -59 22 -182 l0 -138 -65 0 -65 0 0 125
c0 120 -1 127 -25 150 -29 30 -45 31 -78 5 -26 -20 -26 -25 -29 -148 l-3 -127
-62 -3 -63 -3 0 196 0 195 65 0 c58 0 65 -2 65 -20 0 -18 2 -18 36 5 44 30 94
32 144 7z m-390 -187 l0 -195 -65 0 -65 0 0 195 0 195 65 0 65 0 0 -195z"/>
</g>
</svg>
